<svg width="57" height="10" viewBox="0 0 57 10" fill="none" xmlns="http://www.w3.org/2000/svg">
<path d="M2.99994 1.5C2.99994 2.32843 2.32837 3 1.49994 3C0.671512 3 -6.10352e-05 2.32843 -6.10352e-05 1.5C-6.10352e-05 0.671573 0.671512 0 1.49994 0C2.32837 0 2.99994 0.671573 2.99994 1.5Z" fill="white" fill-opacity="0.2"/>
<path d="M11.9999 1.5C11.9999 2.32843 11.3284 3 10.4999 3C9.67151 3 8.99994 2.32843 8.99994 1.5C8.99994 0.671573 9.67151 0 10.4999 0C11.3284 0 11.9999 0.671573 11.9999 1.5Z" fill="white" fill-opacity="0.2"/>
<path d="M20.9999 1.5C20.9999 2.32843 20.3284 3 19.4999 3C18.6715 3 17.9999 2.32843 17.9999 1.5C17.9999 0.671573 18.6715 0 19.4999 0C20.3284 0 20.9999 0.671573 20.9999 1.5Z" fill="white" fill-opacity="0.2"/>
<path d="M29.9999 1.5C29.9999 2.32843 29.3284 3 28.4999 3C27.6715 3 26.9999 2.32843 26.9999 1.5C26.9999 0.671573 27.6715 0 28.4999 0C29.3284 0 29.9999 0.671573 29.9999 1.5Z" fill="white" fill-opacity="0.2"/>
<path d="M38.9999 1.5C38.9999 2.32843 38.3284 3 37.4999 3C36.6715 3 35.9999 2.32843 35.9999 1.5C35.9999 0.671573 36.6715 0 37.4999 0C38.3284 0 38.9999 0.671573 38.9999 1.5Z" fill="white" fill-opacity="0.2"/>
<path d="M47.9999 1.5C47.9999 2.32843 47.3284 3 46.4999 3C45.6715 3 44.9999 2.32843 44.9999 1.5C44.9999 0.671573 45.6715 0 46.4999 0C47.3284 0 47.9999 0.671573 47.9999 1.5Z" fill="white" fill-opacity="0.2"/>
<path d="M56.9999 1.5C56.9999 2.32843 56.3284 3 55.4999 3C54.6715 3 53.9999 2.32843 53.9999 1.5C53.9999 0.671573 54.6715 0 55.4999 0C56.3284 0 56.9999 0.671573 56.9999 1.5Z" fill="white" fill-opacity="0.2"/>
<path d="M2.99994 8.5C2.99994 9.32843 2.32837 10 1.49994 10C0.671512 10 -6.10352e-05 9.32843 -6.10352e-05 8.5C-6.10352e-05 7.67157 0.671512 7 1.49994 7C2.32837 7 2.99994 7.67157 2.99994 8.5Z" fill="white" fill-opacity="0.2"/>
<path d="M11.9999 8.5C11.9999 9.32843 11.3284 10 10.4999 10C9.67151 10 8.99994 9.32843 8.99994 8.5C8.99994 7.67157 9.67151 7 10.4999 7C11.3284 7 11.9999 7.67157 11.9999 8.5Z" fill="white" fill-opacity="0.2"/>
<path d="M20.9999 8.5C20.9999 9.32843 20.3284 10 19.4999 10C18.6715 10 17.9999 9.32843 17.9999 8.5C17.9999 7.67157 18.6715 7 19.4999 7C20.3284 7 20.9999 7.67157 20.9999 8.5Z" fill="white" fill-opacity="0.2"/>
<path d="M29.9999 8.5C29.9999 9.32843 29.3284 10 28.4999 10C27.6715 10 26.9999 9.32843 26.9999 8.5C26.9999 7.67157 27.6715 7 28.4999 7C29.3284 7 29.9999 7.67157 29.9999 8.5Z" fill="white" fill-opacity="0.2"/>
<path d="M38.9999 8.5C38.9999 9.32843 38.3284 10 37.4999 10C36.6715 10 35.9999 9.32843 35.9999 8.5C35.9999 7.67157 36.6715 7 37.4999 7C38.3284 7 38.9999 7.67157 38.9999 8.5Z" fill="white" fill-opacity="0.2"/>
<path d="M47.9999 8.5C47.9999 9.32843 47.3284 10 46.4999 10C45.6715 10 44.9999 9.32843 44.9999 8.5C44.9999 7.67157 45.6715 7 46.4999 7C47.3284 7 47.9999 7.67157 47.9999 8.5Z" fill="white" fill-opacity="0.2"/>
<path d="M56.9999 8.5C56.9999 9.32843 56.3284 10 55.4999 10C54.6715 10 53.9999 9.32843 53.9999 8.5C53.9999 7.67157 54.6715 7 55.4999 7C56.3284 7 56.9999 7.67157 56.9999 8.5Z" fill="white" fill-opacity="0.2"/>
</svg>
