<svg width="17" height="16" viewBox="0 0 17 16" fill="none" xmlns="http://www.w3.org/2000/svg">
<mask id="path-1-inside-1_150_60" fill="white">
<path d="M15.6769 0H7.34358V0.666667H15.5389L0.680908 15.5247L1.15224 15.996L16.0102 1.138V9.33333H16.6769V1C16.6769 0.448667 16.2282 0 15.6769 0Z"/>
</mask>
<path d="M15.6769 0H7.34358V0.666667H15.5389L0.680908 15.5247L1.15224 15.996L16.0102 1.138V9.33333H16.6769V1C16.6769 0.448667 16.2282 0 15.6769 0Z" fill="white"/>
<path d="M7.34358 0V-1H6.34358V0H7.34358ZM7.34358 0.666667H6.34358V1.66667H7.34358V0.666667ZM15.5389 0.666667L16.246 1.37377L17.9531 -0.333333H15.5389V0.666667ZM0.680908 15.5247L-0.0261986 14.8176L-0.733306 15.5247L-0.026198 16.2318L0.680908 15.5247ZM1.15224 15.996L0.445135 16.7031L1.15224 17.4102L1.85935 16.7031L1.15224 15.996ZM16.0102 1.138H17.0102V-1.27621L15.3031 0.430893L16.0102 1.138ZM16.0102 9.33333H15.0102V10.3333H16.0102V9.33333ZM16.6769 9.33333V10.3333H17.6769V9.33333H16.6769ZM15.6769 -1H7.34358V1H15.6769V-1ZM6.34358 0V0.666667H8.34358V0H6.34358ZM7.34358 1.66667H15.5389V-0.333333H7.34358V1.66667ZM14.8318 -0.0404401L-0.0261986 14.8176L1.38802 16.2318L16.246 1.37377L14.8318 -0.0404401ZM-0.026198 16.2318L0.445135 16.7031L1.85935 15.2889L1.38801 14.8176L-0.026198 16.2318ZM1.85935 16.7031L16.7173 1.84511L15.3031 0.430893L0.445135 15.2889L1.85935 16.7031ZM15.0102 1.138V9.33333H17.0102V1.138H15.0102ZM16.0102 10.3333H16.6769V8.33333H16.0102V10.3333ZM17.6769 9.33333V1H15.6769V9.33333H17.6769ZM17.6769 1C17.6769 -0.103618 16.7805 -1 15.6769 -1V1H17.6769Z" fill="white" mask="url(#path-1-inside-1_150_60)"/>
</svg>
