<svg width="13" height="12" viewBox="0 0 13 12" fill="none" xmlns="http://www.w3.org/2000/svg">
<g id="Vector">
<mask id="path-1-inside-1_174_1107" fill="white">
<path d="M11.256 0.0605469L4.12671 0.0605469V0.63089L11.1379 0.63089L0.241516 11.5273L0.644749 11.9305L11.5412 1.03412V8.04536H12.1115V0.916062C12.1115 0.444388 11.7277 0.0605469 11.256 0.0605469Z"/>
</mask>
<path d="M11.256 0.0605469L4.12671 0.0605469V0.63089L11.1379 0.63089L0.241516 11.5273L0.644749 11.9305L11.5412 1.03412V8.04536H12.1115V0.916062C12.1115 0.444388 11.7277 0.0605469 11.256 0.0605469Z" fill="url(#paint0_linear_174_1107)"/>
<path d="M4.12671 0.0605469V-0.939453L3.12671 -0.939453V0.0605469L4.12671 0.0605469ZM4.12671 0.63089L3.12671 0.63089V1.63089H4.12671V0.63089ZM11.1379 0.63089L11.845 1.338L13.5522 -0.36911L11.1379 -0.36911V0.63089ZM0.241516 11.5273L-0.465591 10.8202L-1.1727 11.5273L-0.46559 12.2344L0.241516 11.5273ZM0.644749 11.9305L-0.0623573 12.6377L0.64475 13.3448L1.35186 12.6377L0.644749 11.9305ZM11.5412 1.03412H12.5412V-1.38009L10.8341 0.327016L11.5412 1.03412ZM11.5412 8.04536H10.5412V9.04536H11.5412V8.04536ZM12.1115 8.04536V9.04536H13.1115V8.04536H12.1115ZM11.256 -0.939453L4.12671 -0.939453V1.06055L11.256 1.06055V-0.939453ZM3.12671 0.0605469V0.63089L5.12671 0.63089V0.0605469L3.12671 0.0605469ZM4.12671 1.63089L11.1379 1.63089V-0.36911L4.12671 -0.36911V1.63089ZM10.4308 -0.0762164L-0.465591 10.8202L0.948623 12.2344L11.845 1.338L10.4308 -0.0762164ZM-0.46559 12.2344L-0.0623573 12.6377L1.35186 11.2234L0.948622 10.8202L-0.46559 12.2344ZM1.35186 12.6377L12.2483 1.74123L10.8341 0.327016L-0.0623579 11.2234L1.35186 12.6377ZM10.5412 1.03412V8.04536H12.5412V1.03412L10.5412 1.03412ZM11.5412 9.04536H12.1115V7.04536H11.5412V9.04536ZM13.1115 8.04536V0.916062L11.1115 0.916062V8.04536H13.1115ZM13.1115 0.916062C13.1115 -0.107897 12.28 -0.939453 11.256 -0.939453V1.06055C11.1754 1.06055 11.1115 0.996673 11.1115 0.916062L13.1115 0.916062Z" fill="url(#paint1_linear_174_1107)" mask="url(#path-1-inside-1_174_1107)"/>
</g>
<defs>
<linearGradient id="paint0_linear_174_1107" x1="1.4111" y1="2.52413" x2="11.2157" y2="9.30521" gradientUnits="userSpaceOnUse">
<stop stop-color="#D89A26"/>
<stop offset="1" stop-color="#FFCD70"/>
</linearGradient>
<linearGradient id="paint1_linear_174_1107" x1="1.4111" y1="2.52413" x2="11.2157" y2="9.30521" gradientUnits="userSpaceOnUse">
<stop stop-color="#D89A26"/>
<stop offset="1" stop-color="#FFCD70"/>
</linearGradient>
</defs>
</svg>
