<svg width="16" height="16" viewBox="0 0 16 16" fill="none" xmlns="http://www.w3.org/2000/svg">
<mask id="path-1-inside-1_156_139" fill="white">
<path d="M14.9961 0H6.66279V0.666667H14.8581L0.00012207 15.5247L0.471455 15.996L15.3295 1.138V9.33333H15.9961V1C15.9961 0.448667 15.5475 0 14.9961 0Z"/>
</mask>
<path d="M14.9961 0H6.66279V0.666667H14.8581L0.00012207 15.5247L0.471455 15.996L15.3295 1.138V9.33333H15.9961V1C15.9961 0.448667 15.5475 0 14.9961 0Z" fill="#0C1A1A"/>
<path d="M6.66279 0V-1H5.66279V0H6.66279ZM6.66279 0.666667H5.66279V1.66667H6.66279V0.666667ZM14.8581 0.666667L15.5652 1.37377L17.2723 -0.333333H14.8581V0.666667ZM0.00012207 15.5247L-0.706985 14.8176L-1.41409 15.5247L-0.706984 16.2318L0.00012207 15.5247ZM0.471455 15.996L-0.235651 16.7031L0.471456 17.4102L1.17856 16.7031L0.471455 15.996ZM15.3295 1.138H16.3295V-1.27621L14.6223 0.430893L15.3295 1.138ZM15.3295 9.33333H14.3295V10.3333H15.3295V9.33333ZM15.9961 9.33333V10.3333H16.9961V9.33333H15.9961ZM14.9961 -1H6.66279V1H14.9961V-1ZM5.66279 0V0.666667H7.66279V0H5.66279ZM6.66279 1.66667H14.8581V-0.333333H6.66279V1.66667ZM14.151 -0.0404401L-0.706985 14.8176L0.707229 16.2318L15.5652 1.37377L14.151 -0.0404401ZM-0.706984 16.2318L-0.235651 16.7031L1.17856 15.2889L0.707228 14.8176L-0.706984 16.2318ZM1.17856 16.7031L16.0366 1.84511L14.6223 0.430893L-0.235651 15.2889L1.17856 16.7031ZM14.3295 1.138V9.33333H16.3295V1.138H14.3295ZM15.3295 10.3333H15.9961V8.33333H15.3295V10.3333ZM16.9961 9.33333V1H14.9961V9.33333H16.9961ZM16.9961 1C16.9961 -0.103618 16.0997 -1 14.9961 -1V1H16.9961Z" fill="#0C1A1A" mask="url(#path-1-inside-1_156_139)"/>
</svg>
