<svg width="14" height="22" viewBox="0 0 14 22" fill="none" xmlns="http://www.w3.org/2000/svg">
<g id="Vector">
<mask id="path-1-inside-1_167_103" fill="white">
<path d="M7.39623 21.6023L13.2888 15.7098L12.8174 15.2383L7.0224 21.0333L7.0224 0.0209375L6.35584 0.0209381L6.35584 21.0333L0.560861 15.2383L0.0894563 15.7098L5.98201 21.6023C6.37186 21.9922 7.00638 21.9922 7.39623 21.6023Z"/>
</mask>
<path d="M7.39623 21.6023L13.2888 15.7098L12.8174 15.2383L7.0224 21.0333L7.0224 0.0209375L6.35584 0.0209381L6.35584 21.0333L0.560861 15.2383L0.0894563 15.7098L5.98201 21.6023C6.37186 21.9922 7.00638 21.9922 7.39623 21.6023Z" fill="url(#paint0_linear_167_103)"/>
<path d="M13.2888 15.7098L13.9959 16.4169L14.703 15.7098L13.9959 15.0026L13.2888 15.7098ZM12.8174 15.2383L13.5245 14.5312L12.8174 13.8241L12.1103 14.5312L12.8174 15.2383ZM7.0224 21.0333L6.0224 21.0333L6.0224 23.4475L7.72951 21.7404L7.0224 21.0333ZM7.0224 0.0209375L8.0224 0.0209373L8.0224 -0.979063L7.0224 -0.979063L7.0224 0.0209375ZM6.35584 0.0209381L6.35584 -0.979062L5.35584 -0.979061L5.35584 0.0209375L6.35584 0.0209381ZM6.35584 21.0333L5.64873 21.7404L7.35584 23.4475L7.35584 21.0333L6.35584 21.0333ZM0.560861 15.2383L1.26797 14.5312L0.560861 13.8241L-0.146246 14.5312L0.560861 15.2383ZM0.0894563 15.7098L-0.61765 15.0026L-1.32476 15.7098L-0.61765 16.4169L0.0894563 15.7098ZM8.10333 22.3094L13.9959 16.4169L12.5817 15.0026L6.68912 20.8952L8.10333 22.3094ZM13.9959 15.0026L13.5245 14.5312L12.1103 15.9455L12.5817 16.4169L13.9959 15.0026ZM12.1103 14.5312L6.3153 20.3262L7.72951 21.7404L13.5245 15.9455L12.1103 14.5312ZM8.0224 21.0333L8.0224 0.0209373L6.0224 0.0209384L6.0224 21.0333L8.0224 21.0333ZM7.0224 -0.979063L6.35584 -0.979062L6.35584 1.02094L7.0224 1.02094L7.0224 -0.979063ZM5.35584 0.0209375L5.35584 21.0333L7.35584 21.0333L7.35584 0.0209379L5.35584 0.0209375ZM7.06294 20.3262L1.26797 14.5312L-0.146246 15.9455L5.64873 21.7404L7.06294 20.3262ZM-0.146246 14.5312L-0.61765 15.0026L0.796563 16.4169L1.26797 15.9455L-0.146246 14.5312ZM-0.61765 16.4169L5.27491 22.3094L6.68912 20.8952L0.796563 15.0026L-0.61765 16.4169ZM5.27491 22.3094C6.05528 23.0898 7.32296 23.0898 8.10333 22.3094L6.68912 20.8952L5.27491 22.3094Z" fill="url(#paint1_linear_167_103)" mask="url(#path-1-inside-1_167_103)"/>
</g>
<defs>
<linearGradient id="paint0_linear_167_103" x1="14.538" y1="9.76548" x2="-1.26644" y2="12.6466" gradientUnits="userSpaceOnUse">
<stop stop-color="#D89A26"/>
<stop offset="1" stop-color="#FFCD70"/>
</linearGradient>
<linearGradient id="paint1_linear_167_103" x1="14.538" y1="9.76548" x2="-1.26644" y2="12.6466" gradientUnits="userSpaceOnUse">
<stop stop-color="#D89A26"/>
<stop offset="1" stop-color="#FFCD70"/>
</linearGradient>
</defs>
</svg>
