<svg width="16" height="16" viewBox="0 0 16 16" fill="none" xmlns="http://www.w3.org/2000/svg">
<g id="Vector">
<mask id="path-1-inside-1_167_64" fill="white">
<path d="M15.0002 0H6.66682V0.666667H14.8622L0.00415039 15.5247L0.475484 15.996L15.3335 1.138V9.33333H16.0002V1C16.0002 0.448667 15.5515 0 15.0002 0Z"/>
</mask>
<path d="M15.0002 0H6.66682V0.666667H14.8622L0.00415039 15.5247L0.475484 15.996L15.3335 1.138V9.33333H16.0002V1C16.0002 0.448667 15.5515 0 15.0002 0Z" fill="#8B9F9F"/>
<path d="M6.66682 0V-1H5.66682V0H6.66682ZM6.66682 0.666667H5.66682V1.66667H6.66682V0.666667ZM14.8622 0.666667L15.5693 1.37377L17.2764 -0.333333H14.8622V0.666667ZM0.00415039 15.5247L-0.702956 14.8176L-1.41006 15.5247L-0.702956 16.2318L0.00415039 15.5247ZM0.475484 15.996L-0.231622 16.7031L0.475484 17.4102L1.18259 16.7031L0.475484 15.996ZM15.3335 1.138H16.3335V-1.27621L14.6264 0.430893L15.3335 1.138ZM15.3335 9.33333H14.3335V10.3333H15.3335V9.33333ZM16.0002 9.33333V10.3333H17.0002V9.33333H16.0002ZM15.0002 -1H6.66682V1H15.0002V-1ZM5.66682 0V0.666667H7.66682V0H5.66682ZM6.66682 1.66667H14.8622V-0.333333H6.66682V1.66667ZM14.155 -0.0404401L-0.702956 14.8176L0.711257 16.2318L15.5693 1.37377L14.155 -0.0404401ZM-0.702956 16.2318L-0.231622 16.7031L1.18259 15.2889L0.711257 14.8176L-0.702956 16.2318ZM1.18259 16.7031L16.0406 1.84511L14.6264 0.430893L-0.231623 15.2889L1.18259 16.7031ZM14.3335 1.138V9.33333H16.3335V1.138H14.3335ZM15.3335 10.3333H16.0002V8.33333H15.3335V10.3333ZM17.0002 9.33333V1H15.0002V9.33333H17.0002ZM17.0002 1C17.0002 -0.103618 16.1038 -1 15.0002 -1V1H17.0002Z" fill="#8B9F9F" mask="url(#path-1-inside-1_167_64)"/>
</g>
</svg>
