<svg width="18" height="18" viewBox="0 0 18 18" fill="none" xmlns="http://www.w3.org/2000/svg">
<g clip-path="url(#clip0_259_1487)">
<path d="M18 3.37499C18 1.92749 16.8225 0.749989 15.375 0.749989C13.9275 0.749989 12.75 1.92749 12.75 3.37499C12.75 4.69499 13.7295 5.79074 15 5.97299V11.625C15 13.0725 13.8225 14.25 12.375 14.25H8.70225C8.757 14.109 8.841 13.977 8.95425 13.863L10.86 11.9572C11.0063 11.811 11.0063 11.5732 10.86 11.427C10.7138 11.2807 10.476 11.2807 10.3298 11.427L8.424 13.3327C8.079 13.6777 7.875 14.25 7.875 14.625C7.875 15 8.0565 15.6172 8.424 15.9847L10.3298 17.8905C10.4033 17.964 10.4993 18 10.5953 18C10.6913 18 10.7873 17.9632 10.8608 17.8905C11.007 17.7442 11.007 17.5065 10.8608 17.3602L8.955 15.4545C8.823 15.3225 8.7315 15.1665 8.679 15H12.3758C14.2365 15 15.7508 13.4857 15.7508 11.625V5.97299C17.0213 5.79074 18 4.69499 18 3.37499ZM15.375 5.24999C14.3415 5.24999 13.5 4.40849 13.5 3.37499C13.5 2.34149 14.3415 1.49999 15.375 1.49999C16.4085 1.49999 17.25 2.34149 17.25 3.37499C17.25 4.40849 16.4085 5.24999 15.375 5.24999ZM10.1873 3.37499C10.1873 2.87399 9.99225 2.40299 9.63825 2.04899L7.7325 0.143989C7.5855 -0.00226074 7.3485 -0.00226074 7.20225 0.143989C7.056 0.290239 7.056 0.527989 7.20225 0.674239L9.108 2.57999C9.22875 2.70074 9.31875 2.84399 9.3735 3.00074H5.625C3.76425 3.00074 2.25 4.51499 2.25 6.37574V12.0277C0.9795 12.21 0 13.3057 0 14.6257C0 16.0732 1.1775 17.2507 2.625 17.2507C4.0725 17.2507 5.25 16.0732 5.25 14.6257C5.25 13.3057 4.2705 12.21 3 12.0277V6.37574C3 4.92824 4.1775 3.75074 5.625 3.75074H9.37275C9.31725 3.90674 9.228 4.05074 9.10725 4.17149L7.2015 6.07724C7.05525 6.22349 7.05525 6.46124 7.2015 6.60749C7.275 6.68099 7.371 6.71699 7.467 6.71699C7.563 6.71699 7.659 6.68024 7.7325 6.60749L9.63825 4.70174C9.99225 4.34774 10.1873 3.87599 10.1873 3.37499ZM4.5 14.625C4.5 15.6585 3.6585 16.5 2.625 16.5C1.5915 16.5 0.75 15.6585 0.75 14.625C0.75 13.5915 1.5915 12.75 2.625 12.75C3.6585 12.75 4.5 13.5915 4.5 14.625Z" fill="#8B9F9F"/>
</g>
<defs>
<clipPath id="clip0_259_1487">
<rect width="18" height="18" fill="white"/>
</clipPath>
</defs>
</svg>
