<svg width="18" height="14" viewBox="0 0 18 14" fill="none" xmlns="http://www.w3.org/2000/svg">
<path d="M17.8657 6.38575C17.2072 4.94575 14.6249 0.25 8.9999 0.25C3.3749 0.25 0.792653 4.94575 0.134153 6.38575C0.0457571 6.57873 0 6.78849 0 7.00075C0 7.21301 0.0457571 7.42277 0.134153 7.61575C0.792653 9.05425 3.3749 13.75 8.9999 13.75C14.6249 13.75 17.2072 9.05425 17.8657 7.61425C17.9539 7.42149 17.9995 7.21199 17.9995 7C17.9995 6.78801 17.9539 6.57851 17.8657 6.38575ZM8.9999 12.25C4.26965 12.25 2.0624 8.2255 1.4999 7.00825C2.0624 5.7745 4.26965 1.75 8.9999 1.75C13.7189 1.75 15.9269 5.75725 16.4999 7C15.9269 8.24275 13.7189 12.25 8.9999 12.25Z" fill="#8B9F9F"/>
<path d="M9 3.25C8.25832 3.25 7.5333 3.46993 6.91661 3.88199C6.29993 4.29404 5.81928 4.87971 5.53545 5.56494C5.25162 6.25016 5.17736 7.00416 5.32206 7.73159C5.46675 8.45902 5.8239 9.1272 6.34835 9.65165C6.8728 10.1761 7.54098 10.5333 8.26841 10.6779C8.99584 10.8226 9.74984 10.7484 10.4351 10.4645C11.1203 10.1807 11.706 9.70007 12.118 9.08339C12.5301 8.4667 12.75 7.74168 12.75 7C12.7488 6.0058 12.3533 5.05267 11.6503 4.34966C10.9473 3.64666 9.9942 3.25119 9 3.25ZM9 9.25C8.55499 9.25 8.11998 9.11804 7.74997 8.87081C7.37996 8.62357 7.09157 8.27217 6.92127 7.86104C6.75098 7.4499 6.70642 6.9975 6.79323 6.56105C6.88005 6.12459 7.09434 5.72368 7.40901 5.40901C7.72368 5.09434 8.12459 4.88005 8.56105 4.79323C8.99751 4.70642 9.44991 4.75097 9.86104 4.92127C10.2722 5.09157 10.6236 5.37996 10.8708 5.74997C11.118 6.11998 11.25 6.55499 11.25 7C11.25 7.59674 11.0129 8.16903 10.591 8.59099C10.169 9.01295 9.59674 9.25 9 9.25Z" fill="#8B9F9F"/>
</svg>
