<svg width="98" height="18" viewBox="0 0 98 18" fill="none" xmlns="http://www.w3.org/2000/svg">
<g id="star">
<path id="Star 2" d="M9 0L11.0206 6.21885H17.5595L12.2694 10.0623L14.2901 16.2812L9 12.4377L3.70993 16.2812L5.73056 10.0623L0.440492 6.21885H6.97937L9 0Z" fill="url(#paint0_linear_207_673)"/>
<path id="Star 3" d="M29 0L31.0206 6.21885H37.5595L32.2694 10.0623L34.2901 16.2812L29 12.4377L23.7099 16.2812L25.7306 10.0623L20.4405 6.21885H26.9794L29 0Z" fill="url(#paint1_linear_207_673)"/>
<path id="Star 4" d="M49 0L51.0206 6.21885H57.5595L52.2694 10.0623L54.2901 16.2812L49 12.4377L43.7099 16.2812L45.7306 10.0623L40.4405 6.21885H46.9794L49 0Z" fill="url(#paint2_linear_207_673)"/>
<path id="Star 5" d="M69 0L71.0206 6.21885H77.5595L72.2694 10.0623L74.2901 16.2812L69 12.4377L63.7099 16.2812L65.7306 10.0623L60.4405 6.21885H66.9794L69 0Z" fill="url(#paint3_linear_207_673)"/>
<path id="Star 6" d="M89 0L91.0206 6.21885H97.5595L92.2694 10.0623L94.2901 16.2812L89 12.4377L83.7099 16.2812L85.7306 10.0623L80.4405 6.21885H86.9794L89 0Z" fill="url(#paint4_linear_207_673)"/>
</g>
<defs>
<linearGradient id="paint0_linear_207_673" x1="1.77359" y1="3.73585" x2="16.6415" y2="14.0189" gradientUnits="userSpaceOnUse">
<stop stop-color="#D89A26"/>
<stop offset="1" stop-color="#FFCD70"/>
</linearGradient>
<linearGradient id="paint1_linear_207_673" x1="21.7736" y1="3.73585" x2="36.6415" y2="14.0189" gradientUnits="userSpaceOnUse">
<stop stop-color="#D89A26"/>
<stop offset="1" stop-color="#FFCD70"/>
</linearGradient>
<linearGradient id="paint2_linear_207_673" x1="41.7736" y1="3.73585" x2="56.6415" y2="14.0189" gradientUnits="userSpaceOnUse">
<stop stop-color="#D89A26"/>
<stop offset="1" stop-color="#FFCD70"/>
</linearGradient>
<linearGradient id="paint3_linear_207_673" x1="61.7736" y1="3.73585" x2="76.6415" y2="14.0189" gradientUnits="userSpaceOnUse">
<stop stop-color="#D89A26"/>
<stop offset="1" stop-color="#FFCD70"/>
</linearGradient>
<linearGradient id="paint4_linear_207_673" x1="81.7736" y1="3.73585" x2="96.6415" y2="14.0189" gradientUnits="userSpaceOnUse">
<stop stop-color="#D89A26"/>
<stop offset="1" stop-color="#FFCD70"/>
</linearGradient>
</defs>
</svg>
