<svg width="17" height="16" viewBox="0 0 17 16" fill="none" xmlns="http://www.w3.org/2000/svg">
<path d="M15.875 0.718994L12.9375 0.0627441C12.8125 0.0314941 12.7188 0.000244141 12.625 0.000244141C12.0625 0.000244141 11.5312 0.343994 11.3125 0.875244L9.9375 4.06274C9.6875 4.62524 9.84375 5.31274 10.3438 5.71899L11.5938 6.75024C10.7188 8.37524 9.34375 9.71899 7.71875 10.6252L6.6875 9.37524C6.40625 9.03149 6 8.84399 5.59375 8.84399C5.40625 8.84399 5.21875 8.87524 5.03125 8.96899L1.84375 10.3127C1.21875 10.594 0.875 11.2815 1.03125 11.969L1.6875 14.9065C1.84375 15.5627 2.4375 16.0002 3.09375 16.0002C10.75 16.0002 17 9.81274 17 2.12524C17 1.46899 16.5312 0.875244 15.875 0.718994ZM3.15625 14.5002L2.5 11.6877L5.5625 10.3752L7.3125 12.5002C10.4062 11.0315 12 9.43774 13.4688 6.34399L11.3438 4.59399L12.6562 1.53149L15.5 2.18774C15.4688 8.96899 9.9375 14.469 3.15625 14.5002ZM3.75 6.50024C3.75 6.78149 3.96875 7.00024 4.25 7.00024H4.75C5 7.00024 5.25 6.78149 5.25 6.50024V4.25024H7.5C7.75 4.25024 8 4.03149 8 3.75024V3.25024C8 3.00024 7.75 2.75024 7.5 2.75024H5.25V0.500244C5.25 0.250244 5 0.000244141 4.75 0.000244141H4.25C3.96875 0.000244141 3.75 0.250244 3.75 0.500244V2.75024H1.5C1.21875 2.75024 1 3.00024 1 3.25024V3.75024C1 4.03149 1.21875 4.25024 1.5 4.25024H3.75V6.50024Z" fill="url(#paint0_linear_107_2292)"/>
<defs>
<linearGradient id="paint0_linear_107_2292" x1="2.57652" y1="3.321" x2="15.7925" y2="12.4615" gradientUnits="userSpaceOnUse">
<stop stop-color="#D89A26"/>
<stop offset="1" stop-color="#FFCD70"/>
</linearGradient>
</defs>
</svg>
