<svg width="16" height="17" viewBox="0 0 16 17" fill="none" xmlns="http://www.w3.org/2000/svg">
<path d="M0.71875 1.125L0.0625 4.0625C0.03125 4.1875 0 4.28125 0 4.375C0 4.9375 0.34375 5.46875 0.875 5.6875L4.0625 7.0625C4.625 7.3125 5.3125 7.15625 5.71875 6.65625L6.75 5.40625C8.375 6.28125 9.71875 7.65625 10.625 9.28125L9.375 10.3125C9.03125 10.5938 8.84375 11 8.84375 11.4062C8.84375 11.5938 8.875 11.7812 8.96875 11.9688L10.3125 15.1562C10.5938 15.7812 11.2812 16.125 11.9688 15.9688L14.9062 15.3125C15.5625 15.1562 16 14.5625 16 13.9062C16 6.25 9.8125 0 2.125 0C1.46875 0 0.875 0.46875 0.71875 1.125ZM14.5 13.8438L11.6875 14.5L10.375 11.4375L12.5 9.6875C11.0312 6.59375 9.4375 5 6.34375 3.53125L4.59375 5.65625L1.53125 4.34375L2.1875 1.5C8.96875 1.53125 14.4688 7.0625 14.5 13.8438ZM6.5 13.25C6.78125 13.25 7 13.0312 7 12.75V12.25C7 12 6.78125 11.75 6.5 11.75H4.25V9.5C4.25 9.25 4.03125 9 3.75 9H3.25C3 9 2.75 9.25 2.75 9.5V11.75H0.5C0.25 11.75 0 12 0 12.25L0 12.75C0 13.0312 0.25 13.25 0.5 13.25H2.75V15.5C2.75 15.7812 3 16 3.25 16H3.75C4.03125 16 4.25 15.7812 4.25 15.5V13.25H6.5Z" fill="#0F1F1F"/>
</svg>
