<svg width="12" height="13" viewBox="0 0 12 13" fill="none" xmlns="http://www.w3.org/2000/svg">
<path d="M9.6 9.248L11.94 11.576C11.98 11.616 12 11.668 12 11.732C12 11.796 11.98 11.848 11.94 11.888L11.172 12.656C11.132 12.696 11.08 12.716 11.016 12.716C10.952 12.716 10.9 12.696 10.86 12.656L10.644 12.428L10.536 12.332C10.48 12.284 10.448 12.256 10.44 12.248L8.544 10.352C8.504 10.304 8.448 10.28 8.376 10.28C8.312 10.272 8.256 10.288 8.208 10.328C7.776 10.632 7.308 10.868 6.804 11.036C6.284 11.204 5.752 11.288 5.208 11.288C4.264 11.288 3.388 11.052 2.58 10.58C1.796 10.116 1.172 9.492 0.708 8.708C0.236 7.9 0 7.024 0 6.08C0 5.136 0.236 4.26 0.708 3.452C1.172 2.668 1.796 2.044 2.58 1.58C3.388 1.108 4.264 0.872 5.208 0.872C6.152 0.872 7.024 1.108 7.824 1.58C8.608 2.044 9.232 2.668 9.696 3.452C10.168 4.26 10.404 5.136 10.404 6.08C10.404 7.104 10.128 8.044 9.576 8.9C9.544 8.956 9.528 9.016 9.528 9.08C9.536 9.144 9.56 9.2 9.6 9.248ZM8.352 8.504C8.616 8.16 8.82 7.784 8.964 7.376C9.108 6.96 9.18 6.528 9.18 6.08C9.18 5.36 9 4.692 8.64 4.076C8.288 3.468 7.812 2.988 7.212 2.636C6.596 2.276 5.928 2.096 5.208 2.096C4.488 2.096 3.82 2.276 3.204 2.636C2.596 2.988 2.116 3.468 1.764 4.076C1.404 4.692 1.224 5.36 1.224 6.08C1.224 6.8 1.404 7.468 1.764 8.084C2.116 8.692 2.596 9.172 3.204 9.524C3.82 9.884 4.488 10.064 5.208 10.064C5.688 10.064 6.148 9.984 6.588 9.824C7.028 9.656 7.424 9.42 7.776 9.116C7.992 8.932 8.184 8.728 8.352 8.504Z" fill="white"/>
</svg>
