<svg width="15" height="18" viewBox="0 0 15 18" fill="none" xmlns="http://www.w3.org/2000/svg">
<path d="M14.9874 14.6677C14.9875 15.0955 14.8939 15.5182 14.7132 15.906C14.5325 16.2938 14.2691 16.6374 13.9415 16.9126C13.6139 17.1878 13.23 17.3879 12.8168 17.499C12.4036 17.61 11.9711 17.6293 11.5497 17.5554C11.1283 17.4814 10.7281 17.3162 10.3774 17.0712C10.0266 16.8262 9.73377 16.5073 9.51935 16.1371C9.30493 15.7668 9.17417 15.3541 9.13623 14.928C9.09829 14.5018 9.15411 14.0725 9.29975 13.6702L4.98411 10.8976C4.57193 11.3019 4.04954 11.5755 3.48247 11.684C2.9154 11.7925 2.3289 11.7312 1.79655 11.5077C1.26421 11.2842 0.80972 10.9084 0.49011 10.4276C0.1705 9.94677 0 9.38226 0 8.80489C0 8.22753 0.1705 7.66302 0.49011 7.18218C0.80972 6.70135 1.26421 6.3256 1.79655 6.10209C2.3289 5.87857 2.9154 5.81724 3.48247 5.92578C4.04954 6.03432 4.57193 6.30791 4.98411 6.71221L9.29975 3.94369C9.05263 3.26462 9.06437 2.51831 9.33274 1.84735C9.60111 1.1764 10.1073 0.627846 10.7545 0.306517C11.4018 -0.0148121 12.1448 -0.0863895 12.8415 0.105462C13.5382 0.297313 14.1398 0.739141 14.5313 1.34652C14.9228 1.9539 15.0768 2.68425 14.9639 3.398C14.8509 4.11176 14.479 4.75887 13.9191 5.21571C13.3591 5.67254 12.6505 5.90705 11.9286 5.87443C11.2067 5.84181 10.5222 5.54435 10.0057 5.03888L5.69008 7.81148C5.92332 8.45602 5.92332 9.16191 5.69008 9.80645L10.0057 12.579C10.4178 12.1758 10.9396 11.903 11.5059 11.7948C12.0722 11.6866 12.6578 11.7477 13.1895 11.9707C13.7212 12.1936 14.1753 12.5683 14.4951 13.048C14.8149 13.5278 14.9862 14.0911 14.9874 14.6677Z" fill="#8B9F9F"/>
</svg>
