<svg width="21" height="20" viewBox="0 0 21 20" fill="none" xmlns="http://www.w3.org/2000/svg">
<g id="icon">
<path id="Vector" d="M1.32031 1L3.40031 1.36L4.36331 12.833C4.4003 13.2845 4.60616 13.7054 4.9398 14.0118C5.27344 14.3182 5.71033 14.4875 6.16331 14.486H17.0733C17.507 14.4865 17.9264 14.3303 18.2541 14.0463C18.5819 13.7622 18.7961 13.3694 18.8573 12.94L19.8073 6.382C19.8326 6.20759 19.8233 6.0299 19.7799 5.85909C19.7365 5.68828 19.6599 5.5277 19.5544 5.38653C19.4489 5.24536 19.3166 5.12637 19.1651 5.03637C19.0135 4.94637 18.8458 4.88711 18.6713 4.862C18.6073 4.855 3.73431 4.85 3.73431 4.85" stroke="#0F1F1F" stroke-width="1.5" stroke-linecap="round" stroke-linejoin="round"/>
<path id="Vector_2" d="M12.6953 8.54504H15.4683" stroke="#0F1F1F" stroke-width="1.5" stroke-linecap="round" stroke-linejoin="round"/>
<path id="Vector_3" fill-rule="evenodd" clip-rule="evenodd" d="M5.72381 17.953C5.79714 17.9499 5.87035 17.9616 5.93904 17.9875C6.00772 18.0134 6.07045 18.0529 6.12346 18.1037C6.17646 18.1545 6.21864 18.2155 6.24745 18.283C6.27627 18.3505 6.29112 18.4231 6.29112 18.4965C6.29112 18.5699 6.27627 18.6426 6.24745 18.7101C6.21864 18.7776 6.17646 18.8386 6.12346 18.8893C6.07045 18.9401 6.00772 18.9796 5.93904 19.0055C5.87035 19.0314 5.79714 19.0432 5.72381 19.04C5.58369 19.034 5.45132 18.9741 5.3543 18.8728C5.25728 18.7716 5.20313 18.6368 5.20312 18.4965C5.20313 18.3563 5.25728 18.2215 5.3543 18.1202C5.45132 18.0189 5.58369 17.959 5.72381 17.953Z" stroke="#0F1F1F" stroke-width="1.5" stroke-linecap="round" stroke-linejoin="round"/>
<path id="Vector_4" fill-rule="evenodd" clip-rule="evenodd" d="M17.0059 17.953C17.1505 17.953 17.2891 18.0104 17.3913 18.1126C17.4935 18.2148 17.5509 18.3535 17.5509 18.498C17.5509 18.6425 17.4935 18.7812 17.3913 18.8834C17.2891 18.9856 17.1505 19.043 17.0059 19.043C16.8614 19.043 16.7228 18.9856 16.6206 18.8834C16.5184 18.7812 16.4609 18.6425 16.4609 18.498C16.4609 18.3535 16.5184 18.2148 16.6206 18.1126C16.7228 18.0104 16.8614 17.953 17.0059 17.953V17.953Z" stroke="#0F1F1F" stroke-width="1.5" stroke-linecap="round" stroke-linejoin="round"/>
</g>
</svg>
