<svg width="21" height="20" viewBox="0 0 21 20" fill="none" xmlns="http://www.w3.org/2000/svg">
<path d="M1 1L3.08 1.36L4.043 12.833C4.07999 13.2845 4.28584 13.7054 4.61948 14.0118C4.95312 14.3182 5.39002 14.4875 5.843 14.486H16.753C17.1867 14.4865 17.6061 14.3303 17.9338 14.0463C18.2616 13.7622 18.4758 13.3694 18.537 12.94L19.487 6.382C19.5123 6.20759 19.503 6.0299 19.4596 5.85909C19.4162 5.68828 19.3396 5.5277 19.2341 5.38653C19.1286 5.24536 18.9963 5.12637 18.8447 5.03637C18.6932 4.94637 18.5254 4.88711 18.351 4.862C18.287 4.855 3.414 4.85 3.414 4.85" stroke="#8B9F9F" stroke-width="1.5" stroke-linecap="round" stroke-linejoin="round"/>
<path d="M12.375 8.54504H15.148" stroke="#8B9F9F" stroke-width="1.5" stroke-linecap="round" stroke-linejoin="round"/>
<path fill-rule="evenodd" clip-rule="evenodd" d="M5.40349 17.953C5.47683 17.9499 5.55004 17.9616 5.61872 17.9875C5.68741 18.0134 5.75014 18.0529 5.80314 18.1037C5.85615 18.1545 5.89833 18.2155 5.92714 18.283C5.95596 18.3505 5.97081 18.4231 5.97081 18.4965C5.97081 18.5699 5.95596 18.6426 5.92714 18.7101C5.89833 18.7776 5.85615 18.8386 5.80314 18.8893C5.75014 18.9401 5.68741 18.9796 5.61872 19.0055C5.55004 19.0314 5.47683 19.0432 5.40349 19.04C5.26338 19.034 5.131 18.9741 5.03399 18.8728C4.93697 18.7716 4.88281 18.6368 4.88281 18.4965C4.88281 18.3563 4.93697 18.2215 5.03399 18.1202C5.131 18.0189 5.26338 17.959 5.40349 17.953Z" fill="white" stroke="#8B9F9F" stroke-width="1.5" stroke-linecap="round" stroke-linejoin="round"/>
<path fill-rule="evenodd" clip-rule="evenodd" d="M16.6856 17.953C16.8302 17.953 16.9688 18.0104 17.071 18.1126C17.1732 18.2148 17.2306 18.3535 17.2306 18.498C17.2306 18.6425 17.1732 18.7812 17.071 18.8834C16.9688 18.9856 16.8302 19.043 16.6856 19.043C16.5411 19.043 16.4025 18.9856 16.3003 18.8834C16.198 18.7812 16.1406 18.6425 16.1406 18.498C16.1406 18.3535 16.198 18.2148 16.3003 18.1126C16.4025 18.0104 16.5411 17.953 16.6856 17.953V17.953Z" fill="white" stroke="#8B9F9F" stroke-width="1.5" stroke-linecap="round" stroke-linejoin="round"/>
</svg>
