<svg width="24" height="24" viewBox="0 0 24 24" fill="none" xmlns="http://www.w3.org/2000/svg">
<mask id="path-1-inside-1_1_784" fill="white">
<path d="M2.00564 0.57135H13.9104V1.52373H2.20278L23.4285 22.7494L22.7552 23.4228L1.52945 2.19706V13.9047H0.577068V1.99992C0.577068 1.2123 1.21802 0.57135 2.00564 0.57135Z"/>
</mask>
<path d="M2.00564 0.57135H13.9104V1.52373H2.20278L23.4285 22.7494L22.7552 23.4228L1.52945 2.19706V13.9047H0.577068V1.99992C0.577068 1.2123 1.21802 0.57135 2.00564 0.57135Z" fill="#0C1A1A"/>
<path d="M13.9104 0.57135V-0.42865H14.9104V0.57135H13.9104ZM13.9104 1.52373H14.9104V2.52373H13.9104V1.52373ZM2.20278 1.52373L1.49568 2.23084L-0.21143 0.523731H2.20278V1.52373ZM23.4285 22.7494L24.1356 22.0423L24.8427 22.7494L24.1356 23.4566L23.4285 22.7494ZM22.7552 23.4228L23.4623 24.1299L22.7552 24.837L22.0481 24.1299L22.7552 23.4228ZM1.52945 2.19706H0.529449V-0.217149L2.23656 1.48996L1.52945 2.19706ZM1.52945 13.9047H2.52945V14.9047H1.52945V13.9047ZM0.577068 13.9047V14.9047H-0.422932V13.9047H0.577068ZM2.00564 -0.42865H13.9104V1.57135H2.00564V-0.42865ZM14.9104 0.57135V1.52373H12.9104V0.57135H14.9104ZM13.9104 2.52373H2.20278V0.523731H13.9104V2.52373ZM2.90989 0.816624L24.1356 22.0423L22.7214 23.4566L1.49568 2.23084L2.90989 0.816624ZM24.1356 23.4566L23.4623 24.1299L22.0481 22.7157L22.7214 22.0423L24.1356 23.4566ZM22.0481 24.1299L0.822343 2.90417L2.23656 1.48996L23.4623 22.7157L22.0481 24.1299ZM2.52945 2.19706V13.9047H0.529449V2.19706H2.52945ZM1.52945 14.9047H0.577068V12.9047H1.52945V14.9047ZM-0.422932 13.9047V1.99992H1.57707V13.9047H-0.422932ZM-0.422932 1.99992C-0.422932 0.660017 0.665736 -0.42865 2.00564 -0.42865V1.57135C1.77031 1.57135 1.57707 1.76459 1.57707 1.99992H-0.422932Z" fill="#0C1A1A" mask="url(#path-1-inside-1_1_784)"/>
</svg>
