<svg width="24" height="24" viewBox="0 0 24 24" fill="none" xmlns="http://www.w3.org/2000/svg">
<mask id="path-1-inside-1_1_781" fill="white">
<path d="M21.9944 0.57135H10.0896V1.52373H21.7972L0.571503 22.7494L1.24484 23.4228L22.4706 2.19706V13.9047H23.4229V1.99992C23.4229 1.2123 22.782 0.57135 21.9944 0.57135Z"/>
</mask>
<path d="M21.9944 0.57135H10.0896V1.52373H21.7972L0.571503 22.7494L1.24484 23.4228L22.4706 2.19706V13.9047H23.4229V1.99992C23.4229 1.2123 22.782 0.57135 21.9944 0.57135Z" fill="#0C1A1A"/>
<path d="M10.0896 0.57135V-0.42865H9.0896V0.57135H10.0896ZM10.0896 1.52373H9.0896V2.52373H10.0896V1.52373ZM21.7972 1.52373L22.5043 2.23084L24.2114 0.523731H21.7972V1.52373ZM0.571503 22.7494L-0.135604 22.0423L-0.842711 22.7494L-0.135603 23.4566L0.571503 22.7494ZM1.24484 23.4228L0.53773 24.1299L1.24484 24.837L1.95194 24.1299L1.24484 23.4228ZM22.4706 2.19706H23.4706V-0.217149L21.7634 1.48996L22.4706 2.19706ZM22.4706 13.9047H21.4706V14.9047H22.4706V13.9047ZM23.4229 13.9047V14.9047H24.4229V13.9047H23.4229ZM21.9944 -0.42865H10.0896V1.57135H21.9944V-0.42865ZM9.0896 0.57135V1.52373H11.0896V0.57135H9.0896ZM10.0896 2.52373H21.7972V0.523731H10.0896V2.52373ZM21.0901 0.816624L-0.135604 22.0423L1.27861 23.4566L22.5043 2.23084L21.0901 0.816624ZM-0.135603 23.4566L0.53773 24.1299L1.95194 22.7157L1.27861 22.0423L-0.135603 23.4566ZM1.95194 24.1299L23.1777 2.90417L21.7634 1.48996L0.537729 22.7157L1.95194 24.1299ZM21.4706 2.19706V13.9047H23.4706V2.19706H21.4706ZM22.4706 14.9047H23.4229V12.9047H22.4706V14.9047ZM24.4229 13.9047V1.99992H22.4229V13.9047H24.4229ZM24.4229 1.99992C24.4229 0.660018 23.3343 -0.42865 21.9944 -0.42865V1.57135C22.2297 1.57135 22.4229 1.76459 22.4229 1.99992H24.4229Z" fill="#0C1A1A" mask="url(#path-1-inside-1_1_781)"/>
</svg>
