<svg width="18" height="15" viewBox="0 0 18 15" fill="none" xmlns="http://www.w3.org/2000/svg">
<path d="M16.1572 3.64075C16.1677 3.799 16.1677 3.958 16.1677 4.11775C16.1677 8.998 12.4522 14.6253 5.66025 14.6253V14.6223C3.654 14.6253 1.689 14.0508 0 12.967C0.29175 13.0023 0.585 13.0195 0.879 13.0203C2.5425 13.0218 4.158 12.4638 5.46525 11.4363C3.885 11.4063 2.499 10.3758 2.01525 8.87125C2.56875 8.97775 3.13875 8.956 3.6825 8.80825C1.959 8.46025 0.72 6.946 0.72 5.188C0.72 5.17225 0.72 5.1565 0.72 5.1415C1.23375 5.428 1.80825 5.58625 2.39625 5.6035C0.77325 4.51975 0.27225 2.36126 1.2525 0.673755C3.1275 2.98076 5.89425 4.38325 8.8635 4.5325C8.56575 3.25 8.973 1.90601 9.9315 1.00376C11.4187 -0.394994 13.758 -0.322994 15.1567 1.16426C15.984 1.00151 16.7768 0.697755 17.502 0.268006C17.226 1.12301 16.6492 1.84901 15.8782 2.31101C16.611 2.22326 17.3258 2.02751 18 1.72901C17.5042 2.47076 16.8802 3.118 16.1572 3.64075Z" fill="#8B9F9F"/>
</svg>
