<svg width="1720" height="11406" viewBox="0 0 1720 11406" fill="none" xmlns="http://www.w3.org/2000/svg">
<g opacity="0.1">
<rect opacity="0.35" x="0.5" y="0.5" width="1719" height="13950" stroke="white"/>
<g opacity="0.35">
<mask id="path-2-inside-1_198_181" fill="white">
<path d="M298 0H299V13951H298V0Z"/>
<path d="M598 0H599V13951H598V0Z"/>
<path d="M898 0H899V13951H898V0Z"/>
<path d="M1198 0H1199V13951H1198V0Z"/>
<path d="M1498 0H1499V13951H1498V0Z"/>
</mask>
<path d="M298 0H299V13951H298V0Z" fill="white"/>
<path d="M598 0H599V13951H598V0Z" fill="white"/>
<path d="M898 0H899V13951H898V0Z" fill="white"/>
<path d="M1198 0H1199V13951H1198V0Z" fill="white"/>
<path d="M1498 0H1499V13951H1498V0Z" fill="white"/>
<path d="M298 0V-1H297V0H298ZM299 0H300V-1H299V0ZM299 13951V13952H300V13951H299ZM298 13951H297V13952H298V13951ZM598 0V-1H597V0H598ZM599 0H600V-1H599V0ZM599 13951V13952H600V13951H599ZM598 13951H597V13952H598V13951ZM898 0V-1H897V0H898ZM899 0H900V-1H899V0ZM899 13951V13952H900V13951H899ZM898 13951H897V13952H898V13951ZM1198 0V-1H1197V0H1198ZM1199 0H1200V-1H1199V0ZM1199 13951V13952H1200V13951H1199ZM1198 13951H1197V13952H1198V13951ZM1498 0V-1H1497V0H1498ZM1499 0H1500V-1H1499V0ZM1499 13951V13952H1500V13951H1499ZM1498 13951H1497V13952H1498V13951ZM298 1H299V-1H298V1ZM298 0V13951H300V0H298ZM299 13950H298V13952H299V13950ZM299 13951V0H297V13951H299ZM598 1H599V-1H598V1ZM598 0V13951H600V0H598ZM599 13950H598V13952H599V13950ZM599 13951V0H597V13951H599ZM898 1H899V-1H898V1ZM898 0V13951H900V0H898ZM899 13950H898V13952H899V13950ZM899 13951V0H897V13951H899ZM1198 1H1199V-1H1198V1ZM1198 0V13951H1200V0H1198ZM1199 13950H1198V13952H1199V13950ZM1199 13951V0H1197V13951H1199ZM1498 1H1499V-1H1498V1ZM1498 0V13951H1500V0H1498ZM1499 13950H1498V13952H1499V13950ZM1499 13951V0H1497V13951H1499Z" fill="white" mask="url(#path-2-inside-1_198_181)"/>
</g>
</g>
</svg>
