<svg width="70" height="70" viewBox="0 0 70 70" fill="none" xmlns="http://www.w3.org/2000/svg">
<g clip-path="url(#clip0_169_551)">
<path d="M69.8677 12.8002H62.8031V10.6127H67.6802V6.17531C67.6802 3.97633 65.8667 2.1875 63.6382 2.1875V0C67.0731 0 69.8677 2.76992 69.8677 6.17531V12.8002Z" fill="#8B9F9F"/>
<path d="M54.0127 69.9999L51.1749 69.9993C22.6067 69.9939 7.45992 69.9944 6.15398 69.9999L6.14468 67.8124C7.4539 67.8069 22.6045 67.8064 51.176 67.8118L53.8841 67.8124C55.8977 67.5515 57.4088 65.8628 57.4088 63.8585L57.3743 61.9165H57.4088V6.17518C57.4088 4.68166 57.9447 3.30189 58.8465 2.22729C52.4092 2.22838 38.7434 2.22783 18.0157 2.2251H15.3103C13.3055 2.48213 11.801 4.17033 11.801 6.17518V57.0242H9.61351V6.17518C9.61351 3.03775 11.9815 0.402363 15.1205 0.044707L15.2447 0.0375977H18.0162C46.5845 0.0414258 61.7323 0.0408789 63.0388 0.0375977L63.1657 2.21799C61.1297 2.44986 59.5963 4.15119 59.5963 6.17518V64.104H59.5897C59.4617 67.1403 57.1342 69.6411 54.075 69.9933L54.0127 69.9999Z" fill="#8B9F9F"/>
<path d="M5.76353 69.9996L5.63829 69.9925C2.49923 69.6316 0.132355 66.9946 0.132355 63.8582V60.2139H50.1162V63.8582C50.1162 65.8822 51.6513 67.5846 53.6867 67.8187L53.5566 69.9991C51.5878 69.9909 18.4833 69.9969 8.53564 69.9986L5.76353 69.9996ZM2.31985 62.4014V63.8582C2.31985 65.8631 3.82431 67.5524 5.8297 67.8116L8.53509 67.8111C16.5742 67.8094 39.7299 67.8056 49.3686 67.8078C48.4663 66.7326 47.9287 65.3518 47.9287 63.8577V62.4008H2.31985V62.4014Z" fill="#8B9F9F"/>
<path d="M69.8677 12.4452H67.6802V6.17531C67.6802 3.97633 65.8678 2.1875 63.6393 2.1875C61.4102 2.1875 59.5963 3.97633 59.5963 6.17531H57.4088C57.4093 2.76992 60.2033 0 63.6393 0C67.0731 0 69.8677 2.76992 69.8677 6.17531V12.4452Z" fill="#8B9F9F"/>
<path d="M53.8574 69.9996C50.7544 69.9996 47.9281 67.0721 47.9281 63.8587V59.7451H50.1156V63.8587C50.1156 65.8909 51.9334 67.8121 53.8574 67.8121V69.9996Z" fill="#8B9F9F"/>
<path d="M49.1269 57.1197L44.4167 53.9013L39.7053 57.1192V47.3345H41.8928V52.976L44.4167 51.2523L46.9394 52.9755V47.3345H49.1269V57.1197Z" fill="url(#paint0_linear_169_551)"/>
<path d="M44.4178 49.9804C41.0556 49.9804 38.3201 47.2685 38.3201 43.9353C38.3201 40.6048 41.0556 37.895 44.4178 37.895C47.7783 37.895 50.5127 40.6048 50.5127 43.9353C50.5121 47.2685 47.7778 49.9804 44.4178 49.9804ZM44.4178 40.0825C42.2614 40.0825 40.5076 41.8106 40.5076 43.9353C40.5076 46.0626 42.2614 47.7929 44.4178 47.7929C46.5719 47.7929 48.3252 46.0626 48.3252 43.9353C48.3246 41.8106 46.5719 40.0825 44.4178 40.0825Z" fill="url(#paint1_linear_169_551)"/>
<path d="M45.5104 42.6675H43.3229V45.5058H45.5104V42.6675Z" fill="url(#paint2_linear_169_551)"/>
<path d="M42.8099 10.2915H24.3398V12.479H42.8099V10.2915Z" fill="#8B9F9F"/>
<path d="M49.128 17.4229H18.0217V19.6104H49.128V17.4229Z" fill="#8B9F9F"/>
<path d="M49.128 24.4385H18.0217V26.626H49.128V24.4385Z" fill="#8B9F9F"/>
<path d="M49.128 31.4565H18.0217V33.644H49.128V31.4565Z" fill="#8B9F9F"/>
<path d="M36.5127 38.4727H18.0217V40.6602H36.5127V38.4727Z" fill="#8B9F9F"/>
<path d="M30.3018 45.4888H18.0217V47.6763H30.3018V45.4888Z" fill="#8B9F9F"/>
</g>
<defs>
<linearGradient id="paint0_linear_169_551" x1="40.6337" y1="49.3654" x2="48.604" y2="54.673" gradientUnits="userSpaceOnUse">
<stop stop-color="#D89A26"/>
<stop offset="1" stop-color="#FFCD70"/>
</linearGradient>
<linearGradient id="paint1_linear_169_551" x1="39.5215" y1="40.4033" x2="49.5348" y2="47.3902" gradientUnits="userSpaceOnUse">
<stop stop-color="#D89A26"/>
<stop offset="1" stop-color="#FFCD70"/>
</linearGradient>
<linearGradient id="paint2_linear_169_551" x1="43.5384" y1="43.2566" x2="45.6186" y2="44.3654" gradientUnits="userSpaceOnUse">
<stop stop-color="#D89A26"/>
<stop offset="1" stop-color="#FFCD70"/>
</linearGradient>
<clipPath id="clip0_169_551">
<rect width="70" height="70" fill="white"/>
</clipPath>
</defs>
</svg>
