<svg width="76" height="70" viewBox="0 0 76 70" fill="none" xmlns="http://www.w3.org/2000/svg">
<g clip-path="url(#clip0_169_501)">
<path d="M63.7344 2.43907L63.1097 0.131348L43.6556 5.39745L44.2802 7.70517L63.7344 2.43907Z" fill="#8B9F9F"/>
<path d="M31.8075 11.0753L31.183 8.76758L12.1996 13.9043L12.824 16.212L31.8075 11.0753Z" fill="#8B9F9F"/>
<path d="M42.1406 58.1214H33.7145V15.4C31.589 13.9816 30.2958 11.5856 30.2958 8.98491C30.2958 4.74101 33.7193 1.28906 37.9282 1.28906C42.1365 1.28906 45.5593 4.74101 45.5593 8.98491C45.5593 11.5862 44.2661 13.9828 42.14 15.4006L42.1406 58.1214ZM36.1052 55.7307H39.7505V14.0113L40.3805 13.6731C42.1003 12.7483 43.1698 10.9526 43.1698 8.98491C43.1698 6.05915 40.8183 3.67915 37.9287 3.67915C35.038 3.67915 32.6865 6.05915 32.6865 8.98491C32.6865 10.952 33.7554 12.7483 35.4758 13.6725L36.1058 14.0107L36.1052 55.7307Z" fill="#8B9F9F"/>
<path d="M51.6476 59.0786H49.2575C49.2575 58.4943 48.9164 58.1211 48.6809 58.1211H27.1713C26.9381 58.1211 26.5994 58.4943 26.5994 59.0786H24.2087C24.2087 57.2331 25.5376 55.7305 27.1713 55.7305H48.6803C50.3158 55.7305 51.6476 57.2331 51.6476 59.0786Z" fill="url(#paint0_linear_169_501)"/>
<path d="M55.3943 69.8687H20.4608V61.3477H55.3943V69.8687ZM22.8514 67.478H53.0042V63.7377H22.8514V67.478Z" fill="#8B9F9F"/>
<path d="M55.3943 69.8687H20.4608V61.3477H55.3943V69.8687ZM22.8514 67.478H53.0042V63.7377H22.8514V67.478Z" fill="url(#paint1_linear_169_501)"/>
<path d="M20.4809 41.7101L13.2223 21.5632L5.96482 41.7101L3.71533 40.8998L13.2223 14.5098L22.7298 40.8998L20.4809 41.7101Z" fill="#8B9F9F"/>
<path d="M13.2223 51.6078C7.07237 51.6078 1.77847 47.3929 0.34822 41.3569L0 39.8857H26.4452L26.097 41.3563C24.6667 47.3929 19.3722 51.6078 13.2223 51.6078ZM3.13102 42.2764C4.7422 46.4301 8.70017 49.2177 13.2223 49.2177C17.7444 49.2177 21.7024 46.4301 23.3136 42.2764H3.13102Z" fill="#8B9F9F"/>
<path d="M69.9668 28.3029L62.7081 8.15711L55.4513 28.3023L53.2018 27.4925L62.7093 1.10254L72.2163 27.4925L69.9668 28.3029Z" fill="#8B9F9F"/>
<path d="M62.7087 38.2014C56.557 38.2014 51.262 33.9853 49.8341 27.9481L49.4865 26.4775H75.9322L75.5834 27.9487C74.1502 33.9859 68.8563 38.2014 62.7087 38.2014ZM52.6169 28.8688C54.2263 33.0225 58.1848 35.8107 62.7087 35.8107C67.2291 35.8107 71.187 33.0225 72.8 28.8688H52.6169Z" fill="#8B9F9F"/>
<path d="M39.1235 7.62695H36.7334V10.2804H39.1235V7.62695Z" fill="#8B9F9F"/>
</g>
<defs>
<linearGradient id="paint0_linear_169_501" x1="26.9124" y1="56.4254" x2="27.9238" y2="62.1583" gradientUnits="userSpaceOnUse">
<stop stop-color="#D89A26"/>
<stop offset="1" stop-color="#FFCD70"/>
</linearGradient>
<linearGradient id="paint1_linear_169_501" x1="23.9028" y1="63.1162" x2="28.6217" y2="76.4963" gradientUnits="userSpaceOnUse">
<stop stop-color="#D89A26"/>
<stop offset="1" stop-color="#FFCD70"/>
</linearGradient>
<clipPath id="clip0_169_501">
<rect width="75.9322" height="70" fill="white"/>
</clipPath>
</defs>
</svg>
