<svg width="70" height="70" viewBox="0 0 70 70" fill="none" xmlns="http://www.w3.org/2000/svg">
<path d="M38.3967 31.7539V45.2267C38.3967 51.4682 33.2812 56.5459 26.9927 56.5459C20.7042 56.5459 15.5893 51.4682 15.5893 45.2267L15.5893 31.7528L38.3967 31.7539ZM17.7768 45.2267C17.7768 50.2618 21.9111 54.3584 26.9932 54.3584C32.0754 54.3584 36.2092 50.2618 36.2092 45.2267V33.9414H17.7768L17.7768 45.2267Z" fill="#8B9F9F"/>
<path d="M30.5556 0L30.5556 32.6643H28.3681L28.3681 2.1875H17.7768L17.7768 33.3867H15.5893L15.5893 0H30.5556Z" fill="#8B9F9F"/>
<path d="M38.1079 11.743V33.3867H35.9204V13.9305H30.893L30.893 32.6643H28.7055L28.7055 11.743H38.1079Z" fill="#8B9F9F"/>
<path d="M12.069 3.22852V5.41602L17.4962 5.41602V3.22852L12.069 3.22852Z" fill="#8B9F9F"/>
<path d="M18.3736 51.6975L14.5351 55.5024L16.0751 57.056L19.9136 53.251L18.3736 51.6975Z" fill="#8B9F9F"/>
<path d="M16.9865 45.2085V47.396H28.3145V45.2085H16.9865Z" fill="#8B9F9F"/>
<path d="M57.9311 40.9927L57.9311 67.7988L57.2305 68.0684C53.9028 69.3503 50.3924 70 46.7978 70C36.2065 70 26.6476 64.3836 21.8537 55.3432L23.7864 54.3184C28.2002 62.6418 37.018 67.8125 46.7978 67.8125C49.8712 67.8125 52.8769 67.2995 55.743 66.2862V44.5517C52.3344 46.0644 48.5948 46.8573 44.8241 46.8573C42.2106 46.8573 39.6304 46.486 37.1547 45.7537L37.7754 43.6559C40.0494 44.3286 42.4212 44.6698 44.8247 44.6698C48.8415 44.6698 52.8189 43.6909 56.3265 41.8392L57.9311 40.9927Z" fill="#8B9F9F"/>
<path d="M46.4314 40.301V45.4946H44.2439V40.301C44.2439 36.7873 41.3575 33.9288 37.8088 33.9288V31.7413C42.5633 31.7413 46.4314 35.5809 46.4314 40.301Z" fill="#8B9F9F"/>
<path d="M51.0114 53.031V54.1016H48.8239V53.031H51.0114ZM51.0114 56.2891V58.4766H48.8239V56.2891H51.0114ZM51.0114 60.6641V62.8516H48.8239V60.6641H51.0114Z" fill="url(#paint0_linear_169_514)"/>
<defs>
<linearGradient id="paint0_linear_169_514" x1="49.278" y1="61.8839" x2="52.7772" y2="60.7569" gradientUnits="userSpaceOnUse">
<stop stop-color="#D89A26"/>
<stop offset="1" stop-color="#FFCD70"/>
</linearGradient>
</defs>
</svg>
