<svg width="78" height="78" viewBox="0 0 78 78" fill="none" xmlns="http://www.w3.org/2000/svg">
<path d="M39.6941 58.1086H35.0421L35.0263 56.9063C35.0013 55.0635 34.6716 53.2366 34.0458 51.478C32.6558 47.5615 30.0148 44.4769 27.1519 43.4245L26.0593 43.0241L26.4103 41.9144C27.6254 38.0754 28.5005 33.5709 28.9398 28.8848C29.119 26.9878 29.2214 25.0676 29.2451 23.1768L31.6814 23.2072C31.657 25.1639 31.5504 27.1517 31.3652 29.1133C30.9483 33.5489 30.1525 37.8401 29.052 41.6C32.1799 43.1771 34.855 46.4786 36.3401 50.662C36.9196 52.2896 37.2779 53.9703 37.4077 55.6723H38.476V56.7753H39.6935L39.6941 58.1086Z" fill="#8B9F9F"/>
<path d="M42.9524 58.1081H38.3017V56.7742H39.5198V55.6718H40.588C40.7184 53.968 41.0755 52.2873 41.6544 50.6603C43.1432 46.4757 45.8195 43.1747 48.9468 41.5995C47.8457 37.847 47.0492 33.5564 46.6306 29.1128C46.4441 27.1232 46.3387 25.136 46.318 23.2049L48.7543 23.1787C48.7744 25.0434 48.8755 26.9629 49.0559 28.8849C49.4983 33.5783 50.374 38.0834 51.5891 41.9133L51.9419 43.0242L50.8469 43.4252C47.9859 44.4745 45.343 47.5592 43.95 51.4763C43.3254 53.2331 42.9951 55.0606 42.9695 56.907L42.9524 58.1081Z" fill="#8B9F9F"/>
<path d="M50.3734 23.9814H27.6266V15.6299H50.3734V23.9814ZM30.0629 21.5445H47.9371V18.0662H30.0629V21.5445Z" fill="#8B9F9F"/>
<path d="M49.1553 15.6299H28.8448V18.0662H49.1553V15.6299Z" fill="#8B9F9F"/>
<path d="M40.2181 38.0039H37.7819V56.9268H40.2181V38.0039Z" fill="url(#paint0_linear_169_538)"/>
<path d="M38.9994 39.4688C37.0086 39.4688 35.3895 37.8406 35.3895 35.8394C35.3895 33.8382 37.0086 32.21 38.9994 32.21C40.9896 32.21 42.6093 33.8382 42.6093 35.8394C42.6093 37.8406 40.9896 39.4688 38.9994 39.4688ZM38.9994 34.6456C38.3522 34.6456 37.8257 35.1807 37.8257 35.8388C37.8257 36.4963 38.3522 37.0319 38.9994 37.0319C39.6466 37.0319 40.1731 36.4963 40.1731 35.8388C40.1731 35.1807 39.6466 34.6456 38.9994 34.6456Z" fill="url(#paint1_linear_169_538)"/>
<path d="M20.5079 15.1009C20.0954 15.1009 19.6798 15.0704 19.2715 15.0101L18.3989 14.8809L18.249 14.0113C17.7877 11.3337 18.6316 8.57689 20.5061 6.63786C22.1026 4.98462 24.247 4.07422 26.5425 4.07422C26.9539 4.07422 27.3695 4.1053 27.7765 4.16502L28.6504 4.29359L28.7997 5.16439C29.2597 7.8432 28.4158 10.6 26.5432 12.5384C24.9484 14.1905 22.8052 15.1009 20.5079 15.1009ZM26.4865 6.51172C24.8783 6.52634 23.3787 7.17106 22.2586 8.33131C21.1386 9.48973 20.5353 11.0595 20.5627 12.6646C22.1727 12.6506 23.6724 12.0058 24.7912 10.8462C25.9106 9.68717 26.5139 8.11742 26.4865 6.51172Z" fill="#8B9F9F"/>
<path d="M12.8322 24.0015L12.0687 23.5469C9.79935 22.1971 8.30028 19.8205 8.05836 17.1887C7.81522 14.5604 8.85238 11.9462 10.8328 10.1967L11.4995 9.60742L12.2637 10.0632C14.5311 11.4154 16.0284 13.7926 16.2703 16.4221C16.514 19.0497 15.4781 21.6633 13.4976 23.4128L12.8322 24.0015ZM11.7877 12.7073C10.8213 13.8913 10.3417 15.4245 10.4843 16.965C10.6257 18.5049 11.377 19.9217 12.5415 20.9034C13.5074 19.72 13.9864 18.1868 13.8438 16.6469C13.7018 15.107 12.9516 13.6908 11.7877 12.7073Z" fill="#8B9F9F"/>
<path d="M9.44836 36.9472L8.56782 36.8613C5.94507 36.6047 3.5874 35.0874 2.2614 32.8034C0.938443 30.5256 0.781224 27.7151 1.84154 25.2874L2.19558 24.4751L3.07735 24.5622C5.70071 24.8206 8.05838 26.3373 9.38438 28.6213C10.7061 30.9028 10.8621 33.712 9.80302 36.1367L9.44836 36.9472ZM3.76716 27.1557C3.38447 28.6444 3.59227 30.2422 4.36801 31.5798C5.14252 32.9131 6.41429 33.8747 7.8774 34.2678C8.25947 32.7809 8.05229 31.1825 7.27655 29.8431C6.50265 28.5116 5.23088 27.5494 3.76716 27.1557Z" fill="#8B9F9F"/>
<path d="M8.21925 50.8967C6.5453 50.8967 4.93106 50.3879 3.55205 49.4251C1.39852 47.9211 0.0773906 45.4404 0.0188906 42.7884L0 41.909L0.82875 41.6141C1.71722 41.2978 2.64469 41.1382 3.58495 41.1382C5.26074 41.1382 6.87497 41.6476 8.25338 42.6098C10.4093 44.1156 11.7305 46.5964 11.7865 49.2471L11.8048 50.1252L10.9779 50.4196C10.0888 50.7371 9.16013 50.8967 8.21925 50.8967ZM2.54963 43.6677C2.82567 45.182 3.68306 46.5452 4.94752 47.4275C5.91581 48.1033 7.04681 48.4604 8.21986 48.4604C8.56903 48.4604 8.91638 48.4287 9.25763 48.3666C8.9828 46.8541 8.12541 45.4909 6.85913 44.6067C5.60381 43.7305 4.03894 43.3977 2.54963 43.6677Z" fill="#8B9F9F"/>
<path d="M13.0876 64.0605C12.625 64.0605 12.1583 64.0209 11.6994 63.9417C9.10895 63.4968 6.86828 61.8082 5.7062 59.4262L5.32169 58.6395L5.94447 58.0246C7.49837 56.4914 9.54283 55.6475 11.7006 55.6475C12.1619 55.6475 12.6287 55.6871 13.087 55.7657C15.675 56.2105 17.9156 57.8991 19.0802 60.2799L19.4653 61.066L18.8425 61.6821C17.2904 63.2153 15.2472 64.0605 13.0876 64.0605ZM8.36734 59.1581C9.24911 60.4116 10.5958 61.2793 12.1113 61.5407C13.6323 61.8021 15.1844 61.4353 16.4178 60.5499C15.5354 59.2958 14.1887 58.4274 12.6738 58.1666C11.1546 57.9046 9.60315 58.2714 8.36734 59.1581Z" fill="#8B9F9F"/>
<path d="M22.9935 73.9249C21.1301 73.9242 19.2983 73.2716 17.8346 72.087L17.1539 71.5355L17.4604 70.7141C18.3879 68.2296 20.4518 66.329 22.982 65.6294C25.5066 64.9335 28.2762 65.521 30.3134 67.1687L30.994 67.7196L30.6887 68.5404C29.7637 71.0261 27.6997 72.9285 25.1666 73.6281C24.4554 73.8249 23.7248 73.9249 22.9935 73.9249ZM20.1374 70.7208C21.0082 71.2198 21.9948 71.4892 22.9935 71.4892C23.5054 71.4892 24.0191 71.4191 24.5188 71.2808C26.0014 70.8707 27.2567 69.8725 28.0124 68.5374C26.6967 67.7836 25.1062 67.5721 23.6309 67.9792C22.1502 68.3881 20.8949 69.3856 20.1374 70.7208Z" fill="#8B9F9F"/>
<path d="M34.5966 68.7186C18.6012 65.9057 7.38501 51.4562 8.50626 35.1073C9.08699 26.6139 12.9175 18.8553 19.291 13.2612L20.8985 15.0918C15.0119 20.2587 11.4739 27.4262 10.9364 35.2737C9.90112 50.3758 20.2538 63.723 35.0189 66.3189L34.5966 68.7186Z" fill="#8B9F9F"/>
<path d="M57.4939 15.1024C55.1984 15.1024 53.0552 14.192 51.4587 12.5382C49.5848 10.6022 48.7408 7.8454 49.2003 5.16537L49.3496 4.29518L50.2235 4.16599C50.6305 4.10566 51.0455 4.0752 51.4568 4.0752C53.7517 4.0752 55.8949 4.98499 57.4933 6.63701C59.3677 8.57848 60.2117 11.3353 59.7504 14.0129L59.6011 14.8831L58.7279 15.0123C58.3202 15.072 57.9052 15.1024 57.4939 15.1024ZM51.5135 6.5127C51.4867 8.11901 52.09 9.68815 53.21 10.8447C54.3313 12.0062 55.8297 12.6515 57.4372 12.6662C57.4647 11.0605 56.8614 9.4901 55.7413 8.33046C54.6201 7.17204 53.121 6.52732 51.5135 6.5127Z" fill="#8B9F9F"/>
<path d="M65.1708 24.0029L64.5036 23.4143C62.5231 21.6654 61.486 19.0512 61.7303 16.4205C61.9716 13.7922 63.4701 11.4157 65.737 10.0641L66.5017 9.60889L67.1678 10.1975C69.147 11.9458 70.1842 14.5594 69.9423 17.1901C69.6997 19.8202 68.2013 22.1974 65.9338 23.5483L65.1708 24.0029ZM66.2129 12.7076C65.049 13.6905 64.2982 15.1067 64.1562 16.6453C64.0136 18.1865 64.4926 19.7202 65.4597 20.9043C66.6236 19.9219 67.375 18.5052 67.5169 16.9665C67.6583 15.4248 67.1781 13.8916 66.2129 12.7076Z" fill="#8B9F9F"/>
<path d="M68.5516 36.9497L68.197 36.1374C67.1379 33.7103 67.2951 30.8999 68.6168 28.6214C69.9416 26.3369 72.2999 24.8201 74.9245 24.5617L75.8056 24.4746L76.1597 25.2869C77.2182 27.714 77.0616 30.5245 75.7398 32.8023C74.4144 35.0857 72.0568 36.6036 69.4328 36.862L68.5516 36.9497ZM74.2347 27.1552C72.7703 27.5489 71.4974 28.5105 70.7235 29.8432C69.9477 31.182 69.7399 32.7816 70.1232 34.2709C71.5973 33.8821 72.8465 32.9346 73.6332 31.5793C74.4083 30.2423 74.6161 28.644 74.2347 27.1552Z" fill="#8B9F9F"/>
<path d="M69.7814 50.8967C68.8399 50.8967 67.9124 50.7365 67.0227 50.4196L66.1958 50.1246L66.2141 49.2471C66.2708 46.5964 67.5919 44.1156 69.7485 42.6098C71.1275 41.6488 72.7405 41.1406 74.4138 41.1406C75.3547 41.1406 76.2816 41.3009 77.1706 41.6159L78 41.9103L77.9817 42.7896C77.9244 45.4398 76.6027 47.9205 74.4461 49.4251C73.0677 50.3879 71.4553 50.8967 69.7814 50.8967ZM68.7442 48.3666C70.2317 48.639 71.7972 48.3038 73.0513 47.4275C74.3169 46.5446 75.1749 45.1826 75.451 43.6701C73.9611 43.3978 72.3974 43.7329 71.1415 44.6074C69.8764 45.491 69.019 46.8541 68.7442 48.3666Z" fill="#8B9F9F"/>
<path d="M64.91 64.0609C62.7522 64.0609 60.7084 63.2151 59.1575 61.6813L58.5353 61.0658L58.9199 60.2797C60.0838 57.9001 62.3238 56.2122 64.9118 55.7667C67.5157 55.3188 70.1707 56.1646 72.0562 58.0275L72.6795 58.643L72.2938 59.4297C71.1281 61.8117 68.888 63.4984 66.3012 63.9421C65.8417 64.0213 65.3731 64.0609 64.91 64.0609ZM61.5816 60.5503C62.8156 61.4363 64.3683 61.8032 65.8874 61.5405C67.4011 61.2803 68.7479 60.4126 69.6314 59.1591C68.3962 58.2725 66.8448 57.9056 65.325 58.1676C63.8101 58.4285 62.4634 59.2974 61.5816 60.5503Z" fill="#8B9F9F"/>
<path d="M55.0058 73.9246C54.2752 73.9246 53.5433 73.8247 52.8328 73.6285C50.3008 72.9307 48.2369 71.0289 47.3119 68.5426L47.0078 67.7236L47.686 67.1727C49.7201 65.5219 52.4934 64.9327 55.018 65.631C57.5481 66.3294 59.6115 68.2306 60.5377 70.7163L60.843 71.5377L60.163 72.0886C58.7005 73.272 56.8693 73.9246 55.0058 73.9246ZM49.9876 68.5384C50.7426 69.8735 51.998 70.8716 53.4793 71.2805C54.9571 71.6876 56.5445 71.4755 57.8601 70.7217C57.1039 69.3866 55.8492 68.3891 54.369 67.9802C52.8913 67.5707 51.3014 67.7833 49.9876 68.5384Z" fill="#8B9F9F"/>
<path d="M43.4046 68.7196L42.9829 66.3199C57.7474 63.7221 68.0995 50.3762 67.0642 35.2753C66.5267 27.4277 62.9893 20.2597 57.1033 15.0928L58.7108 13.2622C65.0831 18.8569 68.913 26.6148 69.4943 35.1089C70.615 51.4554 59.4 65.9049 43.4046 68.7196Z" fill="#8B9F9F"/>
<defs>
<linearGradient id="paint0_linear_169_538" x1="38.0219" y1="41.9313" x2="40.9735" y2="42.1941" gradientUnits="userSpaceOnUse">
<stop stop-color="#D89A26"/>
<stop offset="1" stop-color="#FFCD70"/>
</linearGradient>
<linearGradient id="paint1_linear_169_538" x1="36.1009" y1="33.7165" x2="42.0852" y2="37.8332" gradientUnits="userSpaceOnUse">
<stop stop-color="#D89A26"/>
<stop offset="1" stop-color="#FFCD70"/>
</linearGradient>
</defs>
</svg>
